#!OML:ASF E:\motion texture\Top Level 1\Subject 1\Session 1\male.ASF
:FULLY-SPECIFIED
:DEGREES
440
root 5.36221 17.7938 8.40841 -507.284 -80.6104 515.366
lowerback 7.8717 -4.04933 13.4601
upperback 2.44896 -5.91954 17.3864
thorax -0.992836 -3.76443 12.1686
lowerneck 10.2973 -20.8417 -17.913
upperneck 9.48782 -35.9648 26.7481
head 9.721 -17.4412 7.50297
rclavicle 6.67916e-014 5.40694e-014
rhumerus -27.3161 -31.8076 -37.3765
rradius 17.8352
rwrist 29.2139
rhand -12.5901 -27.6466
rfingers 7.12502
rthumb 13.4883 -57.1898
lclavicle 6.67916e-014 5.40694e-014
lhumerus -45.5138 16.3414 75.087
lradius 33.4563
lwrist -32.3022
lhand -14.102 14.6073
lfingers 7.12502
lthumb 12.0308 44.2415
rfemur -26.6874 8.96174 8.36064
rtibia 36.683
rfoot -13.3648 0.629946
rtoes 6.43812
lfemur -22.2928 8.7929 -24.5314
ltibia 58.8709
lfoot -1.0768 0.658297
ltoes -14.9909
441
root 5.19786 17.8121 8.40453 -508.821 -80.4461 516.873
lowerback 7.87081 -4.00572 13.5513
upperback 2.47501 -5.86783 17.3751
thorax -0.977347 -3.74032 12.0963
lowerneck 10.37 -20.8624 -17.9223
upperneck 9.35781 -36.0063 26.8778
head 9.70677 -17.4713 7.54179
rclavicle -6.04305e-014 -6.99722e-014
rhumerus -27.7445 -31.3208 -37.1965
rradius 17.9074
rwrist 29.1386
rhand -12.5368 -27.3132
rfingers 7.12502
rthumb 13.5397 -56.853
lclavicle -6.04305e-014 -6.99722e-014
lhumerus -45.9017 16.8862 75.2936
lradius 32.959
lwrist -32.8889
lhand -13.6494 14.1429
lfingers 7.12502
lthumb 12.4672 43.7511
rfemur -25.9134 9.0577 8.61248
rtibia 36.3718
rfoot -13.536 0.812761
rtoes 6.35727
lfemur -22.9909 8.94782 -24.2585
ltibia 58.684
lfoot -1.60233 1.12906
ltoes -14.7493
442
root 5.03433 17.83 8.40147 -510.286 -80.2825 518.312
lowerback 7.86151 -3.9626 13.6348
upperback 2.49824 -5.81755 17.3596
thorax -0.959944 -3.71638 12.0226
lowerneck 10.4333 -20.8807 -17.9328
upperneck 9.23827 -36.0443 26.9999
head 9.69546 -17.4992 7.57792
rclavicle -3.81667e-014 4.45278e-014
rhumerus -28.14 -30.8309 -37.0414
rradius 17.9814
rwrist 29.0659
rhand -12.5168 -27.0053
rfingers 7.12502
rthumb 13.5589 -56.5438
lclavicle -3.81667e-014 4.45278e-014
lhumerus -46.2552 17.4129 75.4879
lradius 32.482
lwrist -33.4834
lhand -13.1895 13.6683
lfingers 7.12502
lthumb 12.9105 43.2489
rfemur -25.1455 9.14136 8.85535
rtibia 36.057
rfoot -13.6803 0.998145
rtoes 6.25622
lfemur -23.6649 9.07903 -23.9908
ltibia 58.3737
lfoot -2.17147 1.59594
ltoes -14.4922
443
root 4.8716 17.8477 8.39925 -511.684 -80.1207 519.688
lowerback 7.84234 -3.91967 13.7115
upperback 2.51906 -5.76881 17.3404
thorax -0.939367 -3.69267 11.947
lowerneck 10.4861 -20.8984 -17.9436
upperneck 9.12869 -36.082 27.1153
head 9.68786 -17.526 7.61056
rclavicle 6.67916e-014 1.17681e-013
rhumerus -28.5032 -30.3425 -36.9092
rradius 18.0571
rwrist 28.9952
rhand -12.5253 -26.7278
rfingers 7.12502
rthumb 13.5508 -56.2668
lclavicle 6.67916e-014 1.17681e-013
lhumerus -46.5716 17.9196 75.6698
lradius 32.0262
lwrist -34.083
lhand -12.7292 13.1818
lfingers 7.12502
lthumb 13.3542 42.7339
rfemur -24.3838 9.21525 9.08907
rtibia 35.739
rfoot -13.7981 1.18532
rtoes 6.14429
lfemur -24.3134 9.18534 -23.7272
ltibia 57.9412
lfoot -2.7761 2.05774
ltoes -14.2423
444
root 4.70964 17.8649 8.39789 -513.011 -79.9604 520.998
lowerback 7.81449 -3.87737 13.7799
upperback 2.53683 -5.7218 17.3175
thorax -0.916882 -3.6693 11.8708
lowerneck 10.5294 -20.9142 -17.9544
upperneck 9.02911 -36.1167 27.2233
head 9.68288 -17.5507 7.64031
rclavicle 1.27222e-014 -3.56222e-013
rhumerus -28.8337 -29.8589 -36.7986
rradius 18.1343
rwrist 28.9271
rhand -12.5574 -26.4775
rfingers 7.12502
rthumb 13.5198 -56.0187
lclavicle 1.27222e-014 -3.56222e-013
lhumerus -46.8538 18.4035 75.84
lradius 31.5972
lwrist -34.6773
lhand -12.2695 12.6897
lfingers 7.12502
lthumb 13.7973 42.2122
rfemur -23.6319 9.28007 9.31157
rtibia 35.4231
rfoot -13.8907 1.3745
rtoes 6.01905
lfemur -24.9344 9.26567 -23.469
ltibia 57.388
lfoot -3.40933 2.51233
ltoes -14.0057
445
root 4.54832 17.8817 8.39737 -514.275 -79.8025 522.248
lowerback 7.77896 -3.83644 13.84
upperback 2.55112 -5.67732 17.2918
thorax -0.893332 -3.64676 11.7955
lowerneck 10.5649 -20.9273 -17.9661
upperneck 8.94024 -36.1477 27.3216
head 9.67994 -17.5732 7.66701
rclavicle -7.95139e-014 3.18055e-015
rhumerus -29.1309 -29.3819 -36.7074
rradius 18.2121
rwrist 28.8601
rhand -12.6075 -26.2562
rfingers 7.12502
rthumb 13.4715 -55.8005
lclavicle -7.95139e-014 3.18055e-015
lhumerus -47.1048 18.864 75.9978
lradius 31.197
lwrist -35.2651
lhand -11.8207 12.192
lfingers 7.12502
lthumb 14.2298 41.6845
rfemur -22.8887 9.33647 9.52349
rtibia 35.1102
rfoot -13.9584 1.56537
rtoes 5.87784
lfemur -25.5241 9.32004 -23.2149
ltibia 56.7146
lfoot -4.06178 2.95749
ltoes -13.7941
446
root 4.38768 17.8979 8.39768 -515.472 -79.6459 523.434
lowerback 7.73683 -3.79639 13.8897
upperback 2.56247 -5.63466 17.263
thorax -0.868717 -3.62467 11.7216
lowerneck 10.5923 -20.9383 -17.9788
upperneck 8.86119 -36.1759 27.4121
head 9.67942 -17.5938 7.69099
rclavicle 4.77083e-014 1.52667e-013
rhumerus -29.3966 -28.9196 -36.6319
rradius 18.29
rwrist 28.7951
rhand -12.67 -26.0624
rfingers 7.12502
rthumb 13.4113 -55.6107
lclavicle 4.77083e-014 1.52667e-013
lhumerus -47.3251 19.2975 76.1446
lradius 30.8309
lwrist -35.8388
lhand -11.3811 11.697
lfingers 7.12502
lthumb 14.6534 41.1593
rfemur -22.1588 9.38523 9.72268
rtibia 34.8082
rfoot -14.0039 1.75924
rtoes 5.71867
lfemur -26.0815 9.34853 -22.9659
ltibia 55.9265
lfoot -4.7263 3.39213
ltoes -13.6206
447
root 4.22763 17.9135 8.39879 -516.61 -79.4919 524.564
lowerback 7.68857 -3.75808 13.9297
upperback 2.57086 -5.59486 17.2315
thorax -0.843244 -3.60362 11.6497
lowerneck 10.6136 -20.9465 -17.9934
upperneck 8.79214 -36.2004 27.4939
head 9.68074 -17.6123 7.71255
rclavicle -3.81667e-014 -1.11319e-013
rhumerus -29.6303 -28.4713 -36.5724
rradius 18.3679
rwrist 28.7265
rhand -12.7398 -25.8993
rfingers 7.12502
rthumb 13.344 -55.452
lclavicle -3.81667e-014 -1.11319e-013
lhumerus -47.5144 19.7021 76.2805
lradius 30.5002
lwrist -36.3922
lhand -10.9565 11.2052
lfingers 7.12502
lthumb 15.0624 40.6373
rfemur -21.4417 9.4292 9.91028
rtibia 34.5192
rfoot -14.0276 1.95437
rtoes 5.5363
lfemur -26.6046 9.35103 -22.7202
ltibia 55.0297
lfoot -5.39335 3.81371
ltoes -13.4913
448
root 4.06803 17.9282 8.40072 -517.69 -79.3389 525.637
lowerback 7.63545 -3.72009 13.96
upperback 2.57627 -5.55539 17.196
thorax -0.818121 -3.5822 11.578
lowerneck 10.6255 -20.9539 -18.0045
upperneck 8.73598 -36.2235 27.5629
head 9.68404 -17.6291 7.729
rclavicle 4.45278e-014 -5.725e-014
rhumerus -29.8389 -28.0406 -36.5246
rradius 18.4476
rwrist 28.6497
rhand -12.8083 -25.7673
rfingers 7.12502
rthumb 13.278 -55.3243
lclavicle 4.45278e-014 -5.725e-014
lhumerus -47.6731 20.0696 76.4074
lradius 30.2088
lwrist -36.9185
lhand -10.553 10.7242
lfingers 7.12502
lthumb 15.4511 40.1266
rfemur -20.7415 9.46611 10.0848
rtibia 34.251
rfoot -14.0326 2.15537
rtoes 5.3256
lfemur -27.0905 9.3285 -22.4791
ltibia 54.0296
lfoot -6.05364 4.21597
ltoes -13.4277
449
root 3.90887 17.942 8.4034 -518.722 -79.1891 526.661
lowerback 7.57684 -3.68378 13.9811
upperback 2.57923 -5.51867 17.1579
thorax -0.791993 -3.56179 11.5081
lowerneck 10.6361 -20.9576 -18.0196
upperneck 8.68667 -36.2425 27.6273
head 9.68862 -17.6442 7.74526
rclavicle -3.65764e-014 -5.40694e-014
rhumerus -30.0198 -27.636 -36.4865
rradius 18.526
rwrist 28.5722
rhand -12.8671 -25.6668
rfingers 7.12502
rthumb 13.2213 -55.2275
lclavicle -3.65764e-014 -5.40694e-014
lhumerus -47.8024 20.3993 76.5268
lradius 29.9598
lwrist -37.4115
lhand -10.1634 10.261
lfingers 7.12502
lthumb 15.8263 39.6342
rfemur -20.0562 9.49975 10.2489
rtibia 34.0041
rfoot -14.0166 2.35945
rtoes 5.09427
lfemur -27.5387 9.28059 -22.2388
ltibia 52.9365
lfoot -6.68468 4.5854
ltoes -13.4131
450
root 3.75012 17.9547 8.40681 -519.703 -79.0441 527.633
lowerback 7.51558 -3.64834 13.991
upperback 2.57988 -5.48288 17.117
thorax -0.766402 -3.54145 11.4409
lowerneck 10.6366 -20.9619 -18.0309
upperneck 8.64869 -36.2615 27.6802
head 9.69528 -17.6581 7.75624
rclavicle 1.59028e-015 0
rhumerus -30.1779 -27.2655 -36.4523
rradius 18.6026
rwrist 28.4918
rhand -12.9077 -25.5982
rfingers 7.12502
rthumb 13.1821 -55.1615
lclavicle 1.59028e-015 0
lhumerus -47.8987 20.688 76.6406
lradius 29.7548
lwrist -37.8678
lhand -9.7936 9.81776
lfingers 7.12502
lthumb 16.1824 39.1623
rfemur -19.3855 9.52776 10.4015
rtibia 33.7813
rfoot -13.9818 2.56781
rtoes 4.84118
lfemur -27.9493 9.20643 -21.9997
ltibia 51.7652
lfoot -7.25872 4.90756
ltoes -13.441
451
root 3.59168 17.9661 8.41088 -520.645 -78.9044 528.565
lowerback 7.44786 -3.61639 13.9927
upperback 2.57907 -5.45259 17.0729
thorax -0.738079 -3.52342 11.3743
lowerneck 10.6351 -20.9619 -18.0454
upperneck 8.61991 -36.2764 27.7278
head 9.70384 -17.6702 7.76674
rclavicle 7.95139e-015 1.11319e-013
rhumerus -30.3094 -26.9285 -36.4273
rradius 18.6747
rwrist 28.4085
rhand -12.9284 -25.5616
rfingers 7.12502
rthumb 13.1623 -55.1261
lclavicle 7.95139e-015 1.11319e-013
lhumerus -47.9657 20.9357 76.7461
lradius 29.5954
lwrist -38.2805
lhand -9.45257 9.39564
lfingers 7.12502
lthumb 16.5108 38.7131
rfemur -18.7322 9.55317 10.5452
rtibia 33.5895
rfoot -13.9298 2.77922
rtoes 4.55768
lfemur -28.3241 9.10563 -21.759
ltibia 50.5387
lfoot -7.7677 5.19266
ltoes -13.4806
452
root 3.43353 17.9761 8.41558 -521.552 -78.7719 529.459
lowerback 7.37565 -3.58747 13.985
upperback 2.57644 -5.42669 17.0262
thorax -0.708505 -3.50724 11.3098
lowerneck 10.629 -20.9597 -18.0598
upperneck 8.60187 -36.2889 27.7661
head 9.71402 -17.6807 7.77444
rclavicle 3.02153e-014 3.49861e-014
rhumerus -30.417 -26.627 -36.4089
rradius 18.7418
rwrist 28.3205
rhand -12.9258 -25.5569
rfingers 7.12502
rthumb 13.1647 -55.1213
lclavicle 3.02153e-014 3.49861e-014
lhumerus -48.0024 21.1396 76.8455
lradius 29.4839
lwrist -38.6463
lhand -9.13242 9.00581
lfingers 7.12502
lthumb 16.819 38.2974
rfemur -18.097 9.57458 10.6804
rtibia 33.4322
rfoot -13.8598 2.99489
rtoes 4.25308
lfemur -28.6633 8.9757 -21.516
ltibia 49.2726
lfoot -8.22409 5.43711
ltoes -13.5152
453
root 3.2756 17.9845 8.42085 -522.43 -78.6476 530.32
lowerback 7.29943 -3.56124 13.9693
upperback 2.57241 -5.40456 16.9766
thorax -0.677682 -3.49252 11.2464
lowerneck 10.6166 -20.9565 -18.0727
upperneck 8.59529 -36.3007 27.7953
head 9.72656 -17.6901 7.7785
rclavicle -5.56597e-014 -1.84472e-013
rhumerus -30.5039 -26.3666 -36.3954
rradius 18.8023
rwrist 28.2287
rhand -12.9017 -25.5825
rfingers 7.12502
rthumb 13.1879 -55.1454
lclavicle -5.56597e-014 -1.84472e-013
lhumerus -48.0071 21.2961 76.9398
lradius 29.4212
lwrist -38.9625
lhand -8.84395 8.64223
lfingers 7.12502
lthumb 17.0966 37.91
rfemur -17.4804 9.59176 10.8084
rtibia 33.3134
rfoot -13.7709 3.21511
rtoes 3.92976
lfemur -28.967 8.81694 -21.2695
ltibia 47.9815
lfoot -8.63893 5.62509
ltoes -13.5488
454
root 3.11786 17.9913 8.4266 -523.286 -78.5335 531.155
lowerback 7.21857 -3.53784 13.9465
upperback 2.56682 -5.38642 16.9243
thorax -0.645468 -3.47942 11.1835
lowerneck 10.5992 -20.9523 -18.0838
upperneck 8.59873 -36.3115 27.8156
head 9.74066 -17.6985 7.77934
rclavicle 5.56597e-014 -2.00375e-013
rhumerus -30.5729 -26.1519 -36.385
rradius 18.8556
rwrist 28.1389
rhand -12.8546 -25.6369
rfingers 7.12502
rthumb 13.2333 -55.1968
lclavicle 5.56597e-014 -2.00375e-013
lhumerus -47.9793 21.403 77.0296
lradius 29.4074
lwrist -39.2261
lhand -8.58066 8.31519
lfingers 7.12502
lthumb 17.3501 37.5608
rfemur -16.885 9.60267 10.931
rtibia 33.2397
rfoot -13.6651 3.44005
rtoes 3.58374
lfemur -29.2365 8.62834 -21.018
ltibia 46.6791
lfoot -9.01636 5.76326
ltoes -13.5969
